<svg xmlns="http://www.w3.org/2000/svg" width="629" height="100" viewBox="0 0 629 100">
  <text id="SALT_OF_THE_EARTH" data-name="SALT OF THE EARTH" transform="translate(108 62)" fill="#6200c4" font-size="50" font-family="HoeflerText-Regular, Hoefler Text"><tspan x="0" y="0">SALT OF THE EARTH</tspan></text>
  <path id="Icon_fa-solid-earth-africa" data-name="Icon fa-solid-earth-africa" d="M34.727,12.344l1.953,3.4a6.154,6.154,0,0,1,.82,3.105v8.086a2.884,2.884,0,0,0,5.137,1.8l2.656-3.32a3.1,3.1,0,0,1,3.828-.84l2.969,1.484a4.806,4.806,0,0,0,5.547-.9l.762-.762a1.871,1.871,0,0,1,2.148-.352l5.7,2.852a4.479,4.479,0,0,1-.918,8.34l-6.914,1.719a7.943,7.943,0,0,1-4.375-.176l-6.25-2.09a6.241,6.241,0,0,0-5.781.938l-7.637,5.781a7.807,7.807,0,0,0-3.125,6.25v5.469A9.377,9.377,0,0,0,40.625,62.5h6.25A3.134,3.134,0,0,1,50,65.625V75a6.25,6.25,0,0,0,11.25,3.75l5-6.66a12.541,12.541,0,0,0,2.5-7.5V62.227a1.632,1.632,0,0,1,1.25-1.6l1.035-.254a5.234,5.234,0,0,0,2.441-8.77l-6.543-6.543a1.851,1.851,0,0,1,0-2.617,4.135,4.135,0,0,1,4.258-1l2.754.918A5.092,5.092,0,0,0,80.1,39.824a3.356,3.356,0,0,1,3.691-1.8L89.141,39.1A40.66,40.66,0,0,0,34.727,12.344ZM0,50a50,50,0,1,1,50,50A50,50,0,0,1,0,50Z" fill="#6200c4"/>
  <text id="MARRIAGE_COUNSELING_MINISTRY" data-name="MARRIAGE COUNSELING MINISTRY" transform="translate(113 95)" fill="#ffc007" font-size="25" font-family="HelveticaNeue, Helvetica Neue"><tspan x="0" y="0">MARRIAGE COUNSELING MINISTRY</tspan></text>
</svg>
